<?xml version="1.0" encoding="UTF-8" standalone="no"?>
<svg
   xmlns:sketch="http://www.bohemiancoding.com/sketch/ns"
   xmlns:dc="http://purl.org/dc/elements/1.1/"
   xmlns:cc="http://creativecommons.org/ns#"
   xmlns:rdf="http://www.w3.org/1999/02/22-rdf-syntax-ns#"
   xmlns:svg="http://www.w3.org/2000/svg"
   xmlns="http://www.w3.org/2000/svg"
   xmlns:sodipodi="http://sodipodi.sourceforge.net/DTD/sodipodi-0.dtd"
   xmlns:inkscape="http://www.inkscape.org/namespaces/inkscape"
   width="32"
   height="32"
   viewBox="0 0 32 32"
   version="1.1"
   id="svg9"
   sodipodi:docname="Unsplash.svg"
   inkscape:version="0.92.1 r15371">
  <metadata
     id="metadata13">
    <rdf:RDF>
      <cc:Work
         rdf:about="">
        <dc:format>image/svg+xml</dc:format>
        <dc:type
           rdf:resource="http://purl.org/dc/dcmitype/StillImage" />
        <dc:title>Unsplash</dc:title>
      </cc:Work>
    </rdf:RDF>
  </metadata>
  <sodipodi:namedview
     pagecolor="#ffffff"
     bordercolor="#666666"
     borderopacity="1"
     objecttolerance="10"
     gridtolerance="10"
     guidetolerance="10"
     inkscape:pageopacity="0"
     inkscape:pageshadow="2"
     inkscape:window-width="1920"
     inkscape:window-height="1046"
     id="namedview11"
     showgrid="false"
     inkscape:zoom="14.833529"
     inkscape:cx="15.196079"
     inkscape:cy="25.854326"
     inkscape:window-x="0"
     inkscape:window-y="34"
     inkscape:window-maximized="1"
     inkscape:current-layer="svg9" />
  <title
     id="title2">Unsplash</title>
  <description>Created with Sketch (http://www.bohemiancoding.com/sketch)</description>
  <defs
     id="defs4" />
  <g
     id="Page-1"
     sketch:type="MSPage"
     transform="matrix(0.29154181,0,0,0.29154181,0.76676655,2.9944705)"
     style="fill:none;fill-rule:evenodd;stroke:none;stroke-width:1">
    <g
       id="365-photos-later"
       sketch:type="MSLayerGroup"
       transform="translate(1)"
       style="fill:#ffffff">
      <path
         d="m 51.2,36.1 c -8.5,0 -15.5,6.9 -15.5,15.5 0,8.6 7,15.4 15.5,15.4 8.5,0 15.5,-6.9 15.5,-15.5 0,-8.6 -6.9,-15.4 -15.5,-15.4 z M 89,13.7 H 77 L 74.3,6.4 C 72.9,2.9 68.7,0 65,0 H 37.5 c -3.8,0 -7.9,2.9 -9.3,6.4 l -2.7,7.3 h -12 c -7.6,0 -13.7,6.2 -13.7,13.7 v 48.1 c 0,7.6 6.2,13.7 13.7,13.7 H 89 c 7.6,0 13.7,-6.2 13.7,-13.7 v -48 C 102.8,19.9 96.6,13.7 89,13.7 Z M 51.2,75.6 c -13.3,0 -24,-10.8 -24,-24 0,-13.2 10.8,-24 24,-24 13.3,0 24,10.8 24,24 0,13.2 -10.7,24 -24,24 z"
         id="Shape"
         sketch:type="MSShapeGroup"
         inkscape:connector-curvature="0" />
    </g>
  </g>
</svg>
